PathFileType	4	(X/Y/Z)	OpenSim_Sub04_CSBaseline_Magnet.trc
DataRate	CameraRate	NumFrames	NumMarkers	Units	OrigDataRate	OrigDataStartFrame	OrigNumFrames
100	100	20	8	m	100	6063	8083
Frame#	Time	torso_imu_offset_imu	pelvis_imu_offset_imu	tibia_r_imu_offset_imu	femur_r_imu_offset_imu	tibia_l_imu_offset_imu	femur_l_imu_offset_imu	toes_r_imu_offset_imu	toes_l_imu_offset_imu
				X1	Y1	Z1	X2	Y2	Z2	X3	Y3	Z3	X4	Y4	Z4	X5	Y5	Z5	X6	Y6	Z6	X7	Y7	Z7	X8		Y8	Z8	

6063	60.62000000	0.91502019	0.16850377	-0.17645128	-0.62931988	0.10859383	-0.65507257	-0.20359967	-0.78475648	-0.04225992	-0.70045992	-0.44610652	0.13177213	-0.66069668	0.39839338	0.21784572	-0.52282259	-0.11981937	0.32395746	-0.71553252	-0.33309473	0.08360602	-0.64720660	-0.29975750	-0.35633899
6064	60.63000000	0.91487459	0.16769707	-0.18173013	-0.63065133	0.11921912	-0.65568570	-0.18755568	-0.79261565	-0.04185826	-0.70877978	-0.43475768	0.12507966	-0.65854412	0.40314328	0.22062434	-0.52541505	-0.11261263	0.33175632	-0.70901570	-0.34816665	0.12693956	-0.65373268	-0.29903647	-0.35264681
6065	60.64000000	0.91242321	0.17118550	-0.17818131	-0.63300159	0.11668230	-0.65851394	-0.17196505	-0.80104677	-0.03615703	-0.71474422	-0.42694967	0.12129822	-0.65371287	0.41656931	0.22712937	-0.51689198	-0.10285323	0.33027618	-0.69104646	-0.36079339	0.15998126	-0.65122746	-0.29743891	-0.34643535
6066	60.65000000	0.90813410	0.17637881	-0.17918887	-0.63392581	0.12255541	-0.65235385	-0.14947126	-0.79933163	-0.02874878	-0.72443669	-0.40486189	0.11917333	-0.65035636	0.42005496	0.22641436	-0.51064928	-0.08912389	0.33342324	-0.67635224	-0.37109095	0.19135290	-0.64966789	-0.29507671	-0.33828070
6067	60.66000000	0.90737133	0.17414943	-0.18165406	-0.63000898	0.12830608	-0.65532701	-0.12975976	-0.80392875	-0.02700434	-0.74025629	-0.39127320	0.10903496	-0.64740906	0.43108412	0.22292585	-0.51077941	-0.08348910	0.33434913	-0.66819473	-0.38234504	0.22074947	-0.65338733	-0.29408350	-0.34516419
6068	60.67000000	0.90711682	0.17988182	-0.18558081	-0.62947793	0.13110243	-0.65486111	-0.11023457	-0.80921258	-0.03023031	-0.74462353	-0.37138643	0.11298891	-0.63869753	0.44211547	0.22245374	-0.50930257	-0.07771951	0.33564590	-0.65182500	-0.40047010	0.25144215	-0.66083811	-0.30017490	-0.34985589
6069	60.68000000	0.90906404	0.17850795	-0.19095797	-0.62735713	0.12695033	-0.65312819	-0.09713217	-0.80952050	-0.02024470	-0.75175523	-0.35944806	0.11398250	-0.63710068	0.44259807	0.21894909	-0.50707035	-0.07068260	0.34012929	-0.64153714	-0.41039968	0.26749751	-0.65682897	-0.30377721	-0.34541165
6070	60.69000000	0.90930437	0.18587963	-0.18791000	-0.62927123	0.13165642	-0.65853850	-0.08099958	-0.81009224	-0.01890205	-0.76129360	-0.34461687	0.11535883	-0.63654923	0.44802303	0.23061116	-0.50677556	-0.06823897	0.34237735	-0.63521896	-0.41803363	0.27320746	-0.66103926	-0.30205900	-0.34474510
6071	60.70000000	0.90819676	0.18379094	-0.18638553	-0.62812298	0.13498215	-0.65522417	-0.06916825	-0.80540575	-0.02941595	-0.76756870	-0.32892473	0.11304781	-0.62747012	0.45310478	0.23337017	-0.50585909	-0.06141803	0.34818880	-0.62937045	-0.42691362	0.27058472	-0.65331936	-0.30067197	-0.34288167
6072	60.71000000	0.90135028	0.18412943	-0.18772979	-0.62660871	0.13622115	-0.65421064	-0.06139666	-0.81100110	-0.04250708	-0.77847535	-0.31702127	0.11359801	-0.62860410	0.45741000	0.22991594	-0.49928875	-0.04736074	0.35569990	-0.63333413	-0.42939028	0.26508902	-0.65701302	-0.30680597	-0.34152275
6073	60.72000000	0.90463354	0.18640602	-0.18097840	-0.63360578	0.14286613	-0.65275243	-0.06460635	-0.80511194	-0.05486961	-0.78377019	-0.30066189	0.11721935	-0.62521058	0.46036787	0.23326139	-0.50120214	-0.04559887	0.35639585	-0.62827639	-0.43384968	0.26923572	-0.66074112	-0.31021462	-0.33215571
6074	60.73000000	0.90101903	0.19068226	-0.18448260	-0.63073189	0.14055952	-0.65204661	-0.06644452	-0.80085814	-0.06157619	-0.79242311	-0.28798572	0.12083905	-0.62496850	0.46003369	0.23806921	-0.49244280	-0.04202353	0.35833392	-0.62865146	-0.42949104	0.26445024	-0.66268323	-0.31035348	-0.33530793
6075	60.74000000	0.90580420	0.19074775	-0.18134285	-0.63119728	0.13516928	-0.65196708	-0.07897355	-0.80141728	-0.07152017	-0.79397964	-0.27018089	0.11164219	-0.61534901	0.46554890	0.24055748	-0.48542121	-0.04135440	0.35620369	-0.63091801	-0.42330124	0.26059721	-0.66328069	-0.31017187	-0.32885547
6076	60.75000000	0.90575117	0.19651573	-0.18283177	-0.63332711	0.13805491	-0.65175995	-0.09078517	-0.79751554	-0.06711737	-0.79926556	-0.25624293	0.11002575	-0.61104534	0.47103419	0.24167573	-0.48827345	-0.03790377	0.36003561	-0.63784226	-0.41475393	0.24480962	-0.66256751	-0.31190189	-0.32438571
6077	60.76000000	0.90246917	0.19743236	-0.17958605	-0.63818321	0.14265798	-0.65442738	-0.10247960	-0.79684217	-0.06408999	-0.80578256	-0.24473912	0.10313056	-0.61185345	0.47251340	0.24882716	-0.48108273	-0.03345985	0.35975838	-0.65045655	-0.41132091	0.23843823	-0.66504191	-0.31572712	-0.32460947
6078	60.77000000	0.90466136	0.20201373	-0.17868282	-0.63487607	0.14519754	-0.65249025	-0.11684207	-0.79539904	-0.05780597	-0.81518161	-0.22681107	0.10570590	-0.60627430	0.48143133	0.24475023	-0.47571575	-0.02835511	0.37134634	-0.66012287	-0.39644280	0.22777659	-0.66138196	-0.32130272	-0.32284907
6079	60.78000000	0.90044587	0.21121448	-0.17915698	-0.63613803	0.14694784	-0.65464958	-0.13295546	-0.79342163	-0.05737138	-0.81560702	-0.21122685	0.10202959	-0.60249656	0.47904900	0.24807627	-0.47153393	-0.02909994	0.37848981	-0.66907493	-0.38860045	0.19714135	-0.65984296	-0.31589838	-0.32020856
6080	60.79000000	0.90198175	0.21292889	-0.17946552	-0.63358433	0.15273003	-0.65122982	-0.15357728	-0.78994667	-0.05061948	-0.81353711	-0.20004111	0.10232484	-0.60318372	0.47907882	0.24663169	-0.46901380	-0.01698659	0.37852923	-0.68908244	-0.37814155	0.17612890	-0.66611041	-0.31460832	-0.32048764
6081	60.80000000	0.89839354	0.21028874	-0.17704812	-0.62839959	0.15874023	-0.65036990	-0.17398836	-0.78253901	-0.04066523	-0.82611373	-0.19193989	0.10329629	-0.59664697	0.48565007	0.25184572	-0.46819731	-0.01477552	0.37940481	-0.70404942	-0.36389698	0.15122267	-0.66914867	-0.31495132	-0.31601672
6082	60.81000000	0.90131912	0.21314008	-0.17934748	-0.63021593	0.16604494	-0.65071994	-0.20408820	-0.77180670	-0.03932221	-0.82636724	-0.18075133	0.09803983	-0.59839347	0.48909362	0.25151570	-0.45711151	-0.00999969	0.38955005	-0.71320720	-0.34962597	0.11971982	-0.67339873	-0.31523045	-0.31810170
